{
  "accessors": [
    {
      "bufferView": 0,
      "componentType": 5125,
      "count": 5688,
      "type": "SCALAR"
    },
    {
      "bufferView": 1,
      "componentType": 5126,
      "count": 1592,
      "max": [
        0.10239999746084216,
        0.1023999973654747,
        0.016599999580648724
      ],
      "min": [
        -0.10239999746084216,
        -0.10239999736547473,
        -0.016599999580648724
      ],
      "type": "VEC3"
    },
    {
      "bufferView": 2,
      "componentType": 5126,
      "count": 1592,
      "max": [
        0.9976065264795188,
        0.9945640988888736,
        1.0
      ],
      "min": [
        -0.9946218286367066,
        -0.9945865666203334,
        -1.0
      ],
      "type": "VEC3"
    },
    {
      "bufferView": 3,
      "componentType": 5126,
      "count": 1592,
      "max": [
        0.922563466914717,
        1.0
      ],
      "min": [
        0.0,
        0.0
      ],
      "type": "VEC2"
    }
  ],
  "asset": {
    "generator": "Adobe Illustrator",
    "version": "2.0"
  },
  "bufferViews": [
    {
      "buffer": 0,
      "byteLength": 22752,
      "target": 34963
    },
    {
      "buffer": 0,
      "byteLength": 19104,
      "byteOffset": 22752,
      "target": 34962
    },
    {
      "buffer": 0,
      "byteLength": 19104,
      "byteOffset": 41856,
      "target": 34962
    },
    {
      "buffer": 0,
      "byteLength": 12736,
      "byteOffset": 60960,
      "target": 34962
    }
  ],
  "buffers": [
    {
      "byteLength": 73696,
      "uri": "data:application/octet-stream;base64,"
    }
  ],
  "images": [
    {
      "name": "BaseColor",
      "uri": "data:image/png;base64,"
    }
  ],
  "materials": [
    {
      "doubleSided": true,
      "pbrMetallicRoughness": {
        "baseColorTexture": {
          "index": 0
        },
        "metallicFactor": 0.0,
        "roughnessFactor": 0.4000000059604645
      }
    }
  ],
  "meshes": [
    {
      "primitives": [
        {
          "attributes": {
            "NORMAL": 2,
            "POSITION": 1,
            "TEXCOORD_0": 3
          },
          "indices": 0,
          "material": 0,
          "mode": 4
        }
      ]
    }
  ],
  "nodes": [
    {
      "mesh": 0
    }
  ],
  "samplers": [
    {
      "magFilter": 9729,
      "minFilter": 9729,
      "wrapS": 10497,
      "wrapT": 10497
    }
  ],
  "scenes": [
    {
      "nodes": [
        0
      ]
    }
  ],
  "textures": [
    {
      "sampler": 0,
      "source": 0
    }
  ]
}
